<?xml version="1.0" encoding="UTF-8"?>
<svg version="1.1" xmlns="http://www.w3.org/2000/svg" width="512" height="512">
<path d="M0 0 C15.10579016 11.52687988 25.62183494 27.16297017 28.3515625 46.1875 C29.7097306 66.90495308 26.17987742 86.0152091 12.37182617 102.1472168 C3.12587232 112.35416742 -8.91298995 120.65114533 -22.6484375 123.1875 C-22.5878373 143.87629053 -22.51029098 164.56495627 -22.41272259 185.2536068 C-22.36780962 194.86030351 -22.3283846 204.46696352 -22.30200195 214.07373047 C-22.27898542 222.44967075 -22.24554662 230.82549446 -22.19973594 239.20134223 C-22.17585296 243.63386284 -22.15709196 248.06626835 -22.15082359 252.49885178 C-22.14475039 256.67676644 -22.12467034 260.85438679 -22.09416199 265.03219223 C-22.08541745 266.55990043 -22.0816517 268.08764714 -22.08342934 269.61537933 C-22.0941277 283.06040232 -20.63627045 293.08949004 -10.94921875 302.91015625 C-4.01542459 309.25185113 3.38439532 311.31969873 12.70239258 311.30102539 C13.9633223 311.30094986 15.22425201 311.30087433 16.52339172 311.30079651 C17.88929281 311.29569069 19.25519348 311.2904747 20.62109375 311.28515625 C22.02642262 311.2832897 23.43175215 311.28186692 24.83708191 311.28086853 C28.52450375 311.277062 32.2118858 311.26724774 35.89929199 311.25616455 C39.66657971 311.24591025 43.4338741 311.24130742 47.20117188 311.23632812 C54.58467048 311.22615521 61.96806003 311.20657882 69.3515625 311.1875 C61.1015625 302.9375 52.8515625 294.6875 44.3515625 286.1875 C47.83689355 282.12128044 51.11341103 278.30073733 54.875 274.56640625 C55.66777344 273.77685547 56.46054688 272.98730469 57.27734375 272.17382812 C58.08558594 271.37396484 58.89382812 270.57410156 59.7265625 269.75 C60.55800781 268.92306641 61.38945312 268.09613281 62.24609375 267.24414062 C64.2789729 265.22294469 66.31416213 263.20413665 68.3515625 261.1875 C72.27734685 262.78424868 74.95069879 265.48412337 77.89868164 268.42822266 C78.44064682 268.96186432 78.982612 269.49550598 79.54100037 270.0453186 C81.32837857 271.80863151 83.10803388 273.57948339 84.88671875 275.3515625 C86.12927425 276.58514789 87.37190538 277.8186571 88.61460876 279.05209351 C91.21824267 281.63924345 93.81745482 284.23075071 96.41430664 286.82470703 C99.73354555 290.13856795 103.06861999 293.43598269 106.40793705 296.72959328 C108.98071691 299.27254521 111.54208624 301.82676178 114.10049248 304.38416672 C115.32473955 305.60422167 116.55308772 306.82017637 117.7856617 308.03181839 C119.51386094 309.73299056 121.22535974 311.44946276 122.93383789 313.17041016 C123.69369492 313.90801575 123.69369492 313.90801575 124.46890259 314.66052246 C128.66123369 318.94002988 131.05637773 323.69895273 131.56640625 329.7265625 C131.42912109 330.75910156 131.42912109 330.75910156 131.2890625 331.8125 C131.21558594 332.50601562 131.14210938 333.19953125 131.06640625 333.9140625 C129.26552095 339.6414682 124.94093101 343.88426002 120.75683594 348.00927734 C120.21005188 348.55635345 119.66326782 349.10342957 119.09991455 349.66708374 C117.30829295 351.45732243 115.5097134 353.24038988 113.7109375 355.0234375 C112.46068351 356.26995767 111.21087308 357.51692287 109.96148682 358.76431274 C106.68454522 362.033647 103.40164046 365.29692824 100.11743164 368.55895996 C96.76214558 371.89372502 93.41256966 375.23421484 90.0625 378.57421875 C83.49774451 385.11757549 76.92667124 391.65454798 70.3515625 398.1875 C66.53906371 396.4116334 64.11806754 394.18384812 61.1484375 391.1796875 C60.6657843 390.69420441 60.1831311 390.20872131 59.68585205 389.70852661 C58.15297688 388.16450134 56.62722246 386.61365176 55.1015625 385.0625 C54.06035889 384.01125991 53.01869709 382.96047343 51.9765625 381.91015625 C49.42956786 379.34116996 46.88891073 376.76601839 44.3515625 374.1875 C49.31351105 368.19249003 54.6992249 362.72322963 60.2265625 357.25 C61.10570312 356.37537109 61.98484375 355.50074219 62.890625 354.59960938 C65.0419971 352.45992952 67.19568042 350.32263403 69.3515625 348.1875 C68.54771118 348.18385437 67.74385986 348.18020874 66.91564941 348.17645264 C59.26797774 348.13828037 51.62077762 348.0811041 43.97341156 348.00359726 C40.04362029 347.96441138 36.11404341 347.93208384 32.18408203 347.91650391 C28.3777 347.90114358 24.57190863 347.86636695 20.76579285 347.81919098 C19.3277048 347.80457352 17.88953232 347.79647055 16.45137024 347.79561615 C-4.41895572 347.77079266 -23.29983087 341.92606662 -38.6484375 327.1875 C-43.83532681 321.86092785 -47.55632349 315.93549268 -50.9609375 309.375 C-51.28666748 308.76003662 -51.61239746 308.14507324 -51.94799805 307.51147461 C-57.57517286 296.08589496 -58.08114738 284.03170903 -57.98901367 271.56518555 C-57.98816542 269.93767309 -57.98864641 268.3101595 -57.99034119 266.68264771 C-57.99119483 262.3053549 -57.97367254 257.92831344 -57.95261931 253.55107856 C-57.9337461 248.96137787 -57.93209374 244.37167015 -57.92854309 239.78193665 C-57.91925368 231.10894419 -57.89468234 222.43606645 -57.86449462 213.76312429 C-57.83085345 203.88152765 -57.81444027 193.99992527 -57.79940832 184.11828554 C-57.7681297 163.8079599 -57.71543019 143.4977372 -57.6484375 123.1875 C-58.33088531 122.98761475 -59.01333313 122.78772949 -59.71646118 122.58178711 C-60.61392059 122.3163208 -61.51138 122.05085449 -62.43603516 121.77734375 C-63.32473297 121.5155835 -64.21343079 121.25382324 -65.12905884 120.98413086 C-79.84479951 116.33099423 -91.87049955 105.27618053 -99.6484375 92.1875 C-100.33679688 91.03894531 -100.33679688 91.03894531 -101.0390625 89.8671875 C-109.30596882 74.77759343 -111.28365128 56.36585 -107.4609375 39.625 C-106.89889191 37.79899935 -106.29483411 35.98537236 -105.6484375 34.1875 C-105.31972656 33.20910156 -104.99101563 32.23070312 -104.65234375 31.22265625 C-101.65381574 23.16086988 -97.13884751 16.76066103 -91.6484375 10.1875 C-90.83439453 9.20136719 -90.83439453 9.20136719 -90.00390625 8.1953125 C-67.42475263 -16.61317527 -26.79590851 -18.33820287 0 0 Z " fill="#FEC00D" transform="translate(159.6484375,62.8125)"/>
<path d="M0 0 C11.55 0 23.1 0 35 0 C35 6.27 35 12.54 35 19 C36.44375 19.391875 37.8875 19.78375 39.375 20.1875 C56.14687612 25.28992992 69.96739963 36.90744921 78.65234375 52.1484375 C86.85811575 69.51137536 89.02077263 89.18303241 83.2578125 107.640625 C76.80735497 124.86855505 64.92032036 140.00341024 48 148 C28.35029654 155.75978906 8.51872622 156.74315153 -11.234375 148.6796875 C-26.7208015 141.48675337 -40.48799462 128.43287723 -46.44140625 112.2109375 C-53.18978575 92.81052293 -53.38353209 73.0167522 -44.41650391 54.23388672 C-35.94338037 37.6045894 -22.2996481 26.75661223 -5 20 C-3.35 19.67 -1.7 19.34 0 19 C0 12.73 0 6.46 0 0 Z " fill="#7CB342" transform="translate(375,307)"/>
<path d="M0 0 C15.10579016 11.52687988 25.62183494 27.16297017 28.3515625 46.1875 C29.70944589 66.90061011 26.30730186 85.51059768 12.546875 101.80859375 C3.08625601 112.0604033 -7.20696235 119.22039796 -20.6484375 123.1875 C-21.3084375 123.1875 -21.9684375 123.1875 -22.6484375 123.1875 C-22.6484375 129.4575 -22.6484375 135.7275 -22.6484375 142.1875 C-34.1984375 142.1875 -45.7484375 142.1875 -57.6484375 142.1875 C-57.6484375 135.9175 -57.6484375 129.6475 -57.6484375 123.1875 C-59.0303125 122.836875 -60.4121875 122.48625 -61.8359375 122.125 C-79.32163866 116.77324097 -92.7537216 105.12734595 -101.296875 89.09375 C-109.70025766 71.87706358 -111.65999046 52.97493885 -105.90625 34.546875 C-99.45579247 17.31894495 -87.56875786 2.18408976 -70.6484375 -5.8125 C-46.95308097 -15.1699424 -21.56137528 -14.75586745 0 0 Z " fill="#E53A34" transform="translate(432.6484375,62.8125)"/>
<path d="M0 0 C15.10579016 11.52687988 25.62183494 27.16297017 28.3515625 46.1875 C29.7097306 66.90495308 26.17987742 86.0152091 12.37182617 102.1472168 C-0.25619819 116.08776023 -16.78209538 124.11925985 -35.5625 125.46875 C-53.89951599 126.11701705 -71.46352387 121.01476033 -85.6328125 109.08984375 C-98.76573599 96.69501092 -108.25389072 81.01905583 -108.8515625 62.52734375 C-108.99434514 52.70444398 -109.0121261 43.5431845 -105.6484375 34.1875 C-105.31972656 33.20910156 -104.99101563 32.23070312 -104.65234375 31.22265625 C-101.65381574 23.16086988 -97.13884751 16.76066103 -91.6484375 10.1875 C-90.83439453 9.20136719 -90.83439453 9.20136719 -90.00390625 8.1953125 C-67.42475263 -16.61317527 -26.79590851 -18.33820287 0 0 Z " fill="#E53A34" transform="translate(159.6484375,62.8125)"/>
<path d="M0 0 C7.01952074 4.88430531 13.1497337 12.0937074 14.7421875 20.6796875 C15.66641725 32.98991426 14.87722274 42.81288337 6.765625 52.6015625 C0.57630121 58.95816531 -6.21476973 62.23758589 -15.08984375 63.015625 C-26.9561832 63.13207583 -35.35055119 61.45923186 -44.2109375 53.1015625 C-51.26292868 44.75760347 -54.0900525 35.39092455 -53.2578125 24.6796875 C-51.39913773 14.3624674 -46.2301861 6.30394738 -37.73828125 0.1875 C-25.31365947 -7.36510473 -12.5226194 -7.32291584 0 0 Z " fill="#F0F6E8" transform="translate(411.2578125,363.3203125)"/>
<path d="M0 0 C8.38751324 5.25448903 14.32531734 11.89359452 16.58203125 21.7109375 C17.67406528 33.90736252 16.68083563 43.93177202 8.67578125 53.6328125 C1.57399218 60.68160315 -7.24575854 64.11323545 -17.16796875 64.0859375 C-27.07334597 64.03269496 -34.34687368 61.60543204 -41.59765625 54.765625 C-48.60754366 46.85317698 -51.96195604 38.16042096 -51.73046875 27.61328125 C-50.63388957 17.42880215 -45.57624705 8.8947966 -37.73046875 2.4609375 C-25.9947383 -5.72054316 -12.63610174 -6.73653243 0 0 Z " fill="#FBE9EC" transform="translate(409.41796875,89.2890625)"/>
<path d="M0 0 C7.02818942 4.89033712 13.13326972 12.08992812 14.7421875 20.6796875 C15.53302592 29.95495288 15.43188089 38.3647377 10.7421875 46.6796875 C10.21625 47.64455078 10.21625 47.64455078 9.6796875 48.62890625 C6.46651508 53.77221349 1.96278986 56.74975761 -3.2578125 59.6796875 C-3.85078125 60.02257812 -4.44375 60.36546875 -5.0546875 60.71875 C-12.92815519 64.44645373 -24.62300736 64.02204847 -32.6953125 61.1796875 C-42.75527999 56.31032508 -48.16802769 48.90414953 -52.2578125 38.6796875 C-55.04027116 29.75192138 -53.28108236 20.90115199 -49.2578125 12.6796875 C-44.11096969 3.87828175 -36.73650756 -1.46592709 -27.11328125 -4.625 C-17.36479858 -6.99877553 -8.58569808 -5.02070233 0 0 Z " fill="#FBE9EC" transform="translate(138.2578125,90.3203125)"/>
<path d="M0 0 C4.25851123 3.0360868 7.63297219 6.3825438 10.70703125 10.609375 C10.70703125 11.269375 10.70703125 11.929375 10.70703125 12.609375 C10.13597656 12.465 9.56492187 12.320625 8.9765625 12.171875 C-1.53773381 9.7647865 -11.80630502 8.7949682 -21.29296875 14.609375 C-28.58179737 19.19961734 -33.94218702 24.81619179 -36.79296875 33.109375 C-38.4738399 41.51373077 -37.9459713 50.48455468 -35.29296875 58.609375 C-42.00633939 56.3793684 -46.26648524 51.2454654 -49.66015625 45.15625 C-53.9079816 35.79243062 -54.66120826 26.91116578 -51.32421875 17.0546875 C-47.09538996 7.02723741 -39.97272128 0.27409929 -29.91796875 -3.828125 C-19.3126288 -7.24014941 -9.51010001 -5.76762454 0 0 Z " fill="#D9EAC5" transform="translate(411.29296875,363.390625)"/>
<path d="M0 0 C4.9834913 3.12198618 9.32691881 6.75806054 12.58203125 11.7109375 C12.58203125 12.3709375 12.58203125 13.0309375 12.58203125 13.7109375 C11.58945312 13.38867188 10.596875 13.06640625 9.57421875 12.734375 C1.15140619 10.34177113 -9.69154975 10.19458765 -17.46875 14.4609375 C-18.11199219 14.8734375 -18.75523437 15.2859375 -19.41796875 15.7109375 C-20.11277344 16.1234375 -20.80757813 16.5359375 -21.5234375 16.9609375 C-28.20961894 21.37657703 -32.4963717 27.93061401 -34.79296875 35.5859375 C-36.40641782 43.71903789 -35.84127932 51.83517815 -33.41796875 59.7109375 C-41.49620765 56.29322104 -45.56260689 50.28995631 -49.41796875 42.7109375 C-52.95676572 33.86394508 -52.22026037 24.98133512 -48.67578125 16.28125 C-44.19074777 7.11618159 -37.47622771 1.14117313 -28.04296875 -2.6640625 C-18.31382947 -5.87132359 -9.03292715 -4.81561544 0 0 Z " fill="#F8CAD0" transform="translate(409.41796875,89.2890625)"/>
<path d="M0 0 C4.25851123 3.0360868 7.63297219 6.3825438 10.70703125 10.609375 C10.70703125 11.269375 10.70703125 11.929375 10.70703125 12.609375 C9.84078125 12.279375 8.97453125 11.949375 8.08203125 11.609375 C-0.93876002 9.0659876 -11.8044901 9.55153808 -20.29296875 13.609375 C-27.87457079 18.31142626 -33.83899066 24.47923961 -36.79296875 33.0390625 C-37.48134199 36.57773118 -37.58040291 40.07924215 -37.60546875 43.671875 C-37.61102783 44.34468506 -37.61658691 45.01749512 -37.62231445 45.71069336 C-37.55554664 50.37702182 -36.72580322 54.21953552 -35.29296875 58.609375 C-42.00633939 56.3793684 -46.26648524 51.2454654 -49.66015625 45.15625 C-53.73406631 36.17580592 -54.86507865 27.44687461 -51.66796875 17.921875 C-47.84109147 8.52863077 -41.86097833 1.82350735 -32.72265625 -2.6484375 C-21.2879564 -7.30701892 -10.59522974 -6.42572706 0 0 Z " fill="#F8CAD0" transform="translate(138.29296875,90.390625)"/>
<path d="M0 0 C11.55 0 23.1 0 35 0 C35 11.88 35 23.76 35 36 C23.45 36 11.9 36 0 36 C0 24.12 0 12.24 0 0 Z " fill="#FFC00E" transform="translate(375,238)"/>
<path d="M0 0 C3.3 0.33 6.6 0.66 10 1 C12.68645431 1.08576474 15.37468241 1.13038102 18.0625 1.125 C19.99802734 1.12886719 19.99802734 1.12886719 21.97265625 1.1328125 C26.32912257 0.9891463 30.66782522 0.48135275 35 0 C35 6.93 35 13.86 35 21 C31.34592496 21.73081501 28.60602176 22.12797059 24.98046875 22.1328125 C24.04009766 22.13410156 23.09972656 22.13539063 22.13085938 22.13671875 C21.15955078 22.13285156 20.18824219 22.12898438 19.1875 22.125 C17.74793945 22.13080078 17.74793945 22.13080078 16.27929688 22.13671875 C15.33505859 22.13542969 14.39082031 22.13414062 13.41796875 22.1328125 C12.57000732 22.13168457 11.7220459 22.13055664 10.84838867 22.12939453 C7.21646115 21.96440597 3.60759797 21.45094975 0 21 C0 14.07 0 7.14 0 0 Z " fill="#F68F1D" transform="translate(102,186)"/>
<path d="M0 0 C11.55 0 23.1 0 35 0 C35 6.27 35 12.54 35 19 C33.06125 18.835 31.1225 18.67 29.125 18.5 C19.25245834 17.75288874 9.85785649 18.08299009 0 19 C0 12.73 0 6.46 0 0 Z " fill="#FEBF0E" transform="translate(375,307)"/>
<path d="M0 0 C2.660625 0.2475 2.660625 0.2475 5.375 0.5 C15.38999708 1.31994128 24.98937135 0.8519684 35 0 C35 6.27 35 12.54 35 19 C23.45 19 11.9 19 0 19 C0 12.73 0 6.46 0 0 Z " fill="#FEBF0E" transform="translate(375,186)"/>
</svg>
